# xmcd
#
# Track frame offsets: 
#        150
#        14249
#        38629
#        59161
#        83720
#        106848
#        123091
#        140198
#        155017
#        175474
#        197781
#        228960
#        247965
#        261194
#        282712
#        303832
#        323868
#
# Disc length: 4633 seconds
#
# Revision: 0
# Processed by: cddbd v1.5.2PL0 Copyright (c) Steve Scherf et al.
# Submitted via: ExactAudioCopy v1.3
#
DISCID=f9121711
DTITLE=Heart - Soundstage Live
DYEAR=1900
DGENRE=Folk/Rock
TTITLE0=Sand
TTITLE1=Kick It Out
TTITLE2=Straight On
TTITLE3=Oldest Story In The World
TTITLE4=Perfect Goodbye
TTITLE5=These Dreams
TTITLE6=Battle Of Evermore
TTITLE7=Love Song
TTITLE8=Lost Angel
TTITLE9=Magic Man
TTITLE10=Crazy On You
TTITLE11=Bebe Le Strange
TTITLE12=Fallen Ones
TTITLE13=Make Me
TTITLE14=Even It Up
TTITLE15=Dog and Butterfly
TTITLE16=Alone
EXTD=
EXTT0=
EXTT1=
EXTT2=
EXTT3=
EXTT4=
EXTT5=
EXTT6=
EXTT7=
EXTT8=
EXTT9=
EXTT10=
EXTT11=
EXTT12=
EXTT13=
EXTT14=
EXTT15=
EXTT16=
PLAYORDER=
